PathFileType	4	(X/Y/Z)	s03c0402.trc
DataRate	CameraRate	NumFrames	NumMarkers	Units	OrigDataRate	OrigDataStartFrame	OrigNumFrames
200	200	5	50	mm	200	250	2000
Frame#	Time	racr			lacr			c7			jug			rlel			rdr			llel			ldr			s2			lic			ric			lasi			rasi			rpsi			lpsi			rgt			lgt			rth1			rth2			rth3			rth4			rlfc			rmfc			rsh1			rsh2			rsh3			rsh4			rlmal			rcal			rtoe			rmt5			rmt1			lth1			lth2			lth4			lth3			llfc			lmfc			lsh1			lsh2			lsh3			lsh4			llmal			lcal			ltoe			lmt1			lmt5			SBIKE			LBIKE			RBIKE			
		X1	Y1	Z1	X2	Y2	Z2	X3	Y3	Z3	X4	Y4	Z4	X5	Y5	Z5	X6	Y6	Z6	X7	Y7	Z7	X8	Y8	Z8	X9	Y9	Z9	X10	Y10	Z10	X11	Y11	Z11	X12	Y12	Z12	X13	Y13	Z13	X14	Y14	Z14	X15	Y15	Z15	X16	Y16	Z16	X17	Y17	Z17	X18	Y18	Z18	X19	Y19	Z19	X20	Y20	Z20	X21	Y21	Z21	X22	Y22	Z22	X23	Y23	Z23	X24	Y24	Z24	X25	Y25	Z25	X26	Y26	Z26	X27	Y27	Z27	X28	Y28	Z28	X29	Y29	Z29	X30	Y30	Z30	X31	Y31	Z31	X32	Y32	Z32	X33	Y33	Z33	X34	Y34	Z34	X35	Y35	Z35	X36	Y36	Z36	X37	Y37	Z37	X38	Y38	Z38	X39	Y39	Z39	X40	Y40	Z40	X41	Y41	Z41	X42	Y42	Z42	X43	Y43	Z43	X44	Y44	Z44	X45	Y45	Z45	X46	Y46	Z46	X47	Y47	Z47	X48	Y48	Z48	X49	Y49	Z49	X50	Y50	Z50	
250	1.2500	542.051937	1403.587725	-85.778695	544.042845	1418.795890	-389.799222	459.104565	1475.826416	-236.741629	501.979325	1307.121336	-237.260036	532.859153	1165.044816	81.370049	735.287983	987.785882	-17.568594	523.947181	1176.627344	-550.884840	725.640388	984.005628	-451.211327	-83.198850	1231.793061	-253.710994	113.562461	1206.248719	-430.733665	97.623300	1230.789655	-68.916610	109.590458	1132.010016	-395.117242	100.312842	1172.052360	-108.440908	-43.440212	1274.740517	-211.676970	-34.607582	1270.065649	-292.565097	17.692632	1165.596407	-46.769613	18.704379	1111.442696	-451.996887	135.849469	1068.429526	-30.857030	224.308662	1058.314532	-31.284356	295.198210	1009.280565	-35.564033	237.075766	1091.043788	-44.682070	406.386678	937.263924	-57.983957	412.360549	924.023083	-182.489661	352.483287	780.473356	-39.552449	342.908087	693.435116	-56.468733	289.942216	622.579417	-60.704673	369.596903	686.158276	-82.387869	236.459155	501.535595	-81.507632	173.712351	450.997145	-124.538751	484.055957	465.102606	-118.206187	364.248399	443.289263	-50.757558	391.248408	459.840289	-165.588107	89.404904	963.509873	-466.061547	148.549628	899.804482	-466.458897	180.733194	917.217630	-462.594590	168.888848	813.830188	-455.048129	244.632863	706.350883	-434.644564	242.345291	698.916111	-310.940961	143.105441	565.939053	-455.332749	119.720361	486.715827	-436.235635	54.699511	423.084575	-430.126472	146.190025	473.327897	-409.875234	-17.297391	316.860044	-408.936296	-91.139570	275.922581	-360.599428	215.878086	236.047418	-361.145624	122.273056	242.509636	-318.236263	94.741273	225.507221	-433.997166	-221.377269	943.335205	-238.037305	-14.563276	80.156746	-437.466397	-14.590111	80.253183	-37.090275	
251	1.2550	544.532540	1402.114572	-85.535891	546.323787	1417.207408	-389.781610	461.597034	1474.402488	-236.616848	504.130143	1305.570955	-237.057641	533.282855	1164.508202	83.230585	735.203842	987.628995	-17.259458	524.152778	1175.953209	-552.142624	725.225497	983.725861	-451.757831	-81.540026	1232.613092	-253.883311	115.343252	1206.335227	-430.769117	99.161400	1230.797901	-68.938694	110.604209	1132.055439	-394.902254	101.464678	1172.208036	-108.527855	-41.819384	1275.500670	-211.750615	-32.832871	1270.755353	-292.655744	18.787190	1166.149031	-46.859571	19.690850	1112.086742	-452.164278	136.663034	1068.727669	-30.851242	225.011221	1058.337698	-31.272508	295.714632	1009.125577	-35.558903	237.873429	1091.040574	-44.671853	406.774855	936.836252	-57.907561	412.839241	923.566148	-182.363295	352.807843	780.072666	-39.498413	343.196482	693.014531	-56.437256	290.089294	622.231434	-60.615842	369.888363	685.820465	-82.385492	236.589815	501.184560	-81.495105	173.838722	450.712635	-124.515248	484.185693	464.891369	-118.213163	364.371175	443.067973	-50.739401	391.379845	459.551424	-165.540585	89.887518	963.837611	-466.300490	148.872485	900.030564	-466.686516	181.102114	917.369808	-462.821068	169.023845	814.010491	-455.276091	244.370082	706.428526	-435.146855	242.092574	698.837869	-311.176703	142.853976	565.881215	-455.467066	119.502952	486.592081	-436.300086	54.462601	423.062401	-430.208697	146.019495	473.260950	-410.037975	-17.547599	316.862935	-409.040230	-91.357927	275.883323	-360.623857	215.746205	236.159006	-361.185554	122.070534	242.659387	-318.279895	94.575525	225.551026	-434.060478	-221.332201	943.355757	-238.062254	-14.563630	80.160062	-437.465747	-14.554173	80.244588	-37.089807	
252	1.2600	546.980783	1400.697053	-85.281561	548.757315	1415.652080	-389.693909	464.196427	1473.005663	-236.430693	506.309639	1304.070462	-236.814431	533.623228	1163.925062	85.028056	735.068783	987.484954	-16.900970	524.343544	1175.270282	-553.278888	724.797326	983.499081	-452.265162	-79.852172	1233.500549	-254.004492	117.193548	1206.471356	-430.781716	100.818579	1230.837814	-68.954401	111.960837	1132.316727	-395.138912	102.688971	1172.395938	-108.630042	-39.979043	1276.308664	-211.901646	-30.983528	1271.499567	-292.753349	20.033395	1166.839204	-46.967832	20.869662	1112.536046	-452.229781	137.487702	1069.031930	-30.904484	225.806252	1058.378705	-31.273625	296.433255	1009.000972	-35.509516	238.807223	1090.951816	-44.704019	407.265860	936.347090	-57.857505	413.428400	923.204346	-182.270114	353.176195	779.719462	-39.459467	343.493978	692.636892	-56.416197	290.344717	621.936111	-60.604924	370.205896	685.500072	-82.357454	236.691227	500.987456	-81.452053	173.929090	450.483697	-124.514549	484.270022	464.719602	-118.226233	364.448675	442.876230	-50.720427	391.465924	459.406242	-165.511300	90.466110	964.274598	-466.577875	149.301655	900.290688	-466.931432	181.567978	917.530001	-463.060347	169.191282	814.183508	-455.491678	244.304465	706.232122	-435.153604	241.766426	698.692109	-311.497729	142.623926	565.822437	-455.596804	119.326094	486.608470	-436.486721	54.300505	422.980983	-430.269350	145.914481	473.166906	-410.192816	-17.725332	316.789452	-409.127363	-91.518737	275.793398	-360.641546	215.632041	236.265223	-361.236963	121.986171	242.726285	-318.361426	94.462807	225.507830	-434.119318	-221.279251	943.367984	-238.075027	-14.549595	80.168717	-437.464494	-14.572077	80.264136	-37.105860	
253	1.2650	549.480120	1399.300617	-85.077423	551.139415	1414.101049	-389.633694	466.859526	1471.672219	-236.210814	508.490723	1302.585012	-236.613241	534.014030	1163.353922	86.784293	734.915324	987.348288	-16.452339	524.463418	1174.642647	-554.400460	724.264415	983.294506	-452.789182	-78.121394	1234.490827	-254.212446	119.102876	1206.653602	-430.767067	102.571578	1230.928641	-68.953520	113.209814	1132.523316	-395.041821	104.032050	1172.527026	-108.906336	-38.214936	1277.015274	-211.878091	-29.134332	1272.225706	-292.760401	21.399699	1167.414653	-47.042898	25.943248	1112.285390	-452.418385	138.472783	1069.393570	-30.880769	226.767194	1058.459044	-31.271527	297.153490	1008.810800	-35.545912	239.829136	1090.997959	-44.764955	407.817263	935.991536	-57.814840	414.098164	922.819831	-182.147328	353.607899	779.340438	-39.420779	343.873450	692.346257	-56.368638	290.592173	621.737865	-60.605388	370.529629	685.102099	-82.322301	236.770672	500.865475	-81.402789	173.979005	450.363069	-124.460288	484.347268	464.608167	-118.193931	364.509933	442.790376	-50.656674	391.516737	459.281161	-165.441358	91.117220	964.671639	-466.775207	149.774157	900.516402	-467.144047	182.091769	917.650728	-463.228154	169.426888	814.362326	-455.737485	244.164169	706.205621	-435.376048	241.445024	698.592960	-311.790843	142.442367	565.781987	-455.716621	119.206137	486.406953	-436.548888	54.190329	422.847733	-430.350641	145.854796	473.072361	-410.360798	-17.804668	316.656431	-409.206848	-91.586987	275.664962	-360.693363	215.600108	236.262807	-361.269991	121.948899	242.743087	-318.448890	94.431877	225.405568	-434.178023	-221.296353	943.398032	-238.240325	-14.558830	80.160225	-437.467374	-14.578312	80.270080	-37.103848	
254	1.2700	551.987834	1397.896833	-84.830351	553.569454	1412.608965	-389.559756	469.506750	1470.382626	-235.987407	510.749938	1301.171418	-236.341414	534.397805	1162.727056	88.456708	734.727289	987.256376	-15.917970	524.378614	1174.163153	-555.787849	723.767592	983.047782	-453.416615	-76.407116	1235.452914	-254.190806	121.060739	1206.878461	-430.720749	104.310861	1231.054499	-68.983669	114.598648	1132.825432	-395.149527	105.389700	1172.872080	-108.850167	-36.447215	1277.796239	-211.791684	-27.184816	1273.069878	-292.799254	22.778056	1168.105647	-47.079112	27.037297	1113.031672	-452.471173	139.444155	1069.727165	-30.929343	227.705968	1058.538581	-31.369547	298.049200	1008.692109	-35.619382	240.923149	1091.069626	-44.793898	408.448624	935.696705	-57.795895	414.745293	922.449859	-182.113910	354.084605	779.140632	-39.395040	344.251740	692.170874	-56.356985	290.851863	621.570277	-60.618935	370.881454	684.787695	-82.316131	236.828076	500.833401	-81.349400	173.975724	450.343240	-124.398389	484.355231	464.557944	-118.204197	364.528169	442.776320	-50.609377	391.494014	459.252264	-165.406703	91.820161	965.132608	-467.022702	150.313462	900.777662	-467.361430	182.698438	917.848339	-463.428856	169.682567	814.540013	-455.979700	243.916402	706.277211	-435.849087	241.373929	698.418555	-311.855282	142.288888	565.709621	-455.866352	119.089797	486.304662	-436.700752	54.157854	422.679120	-430.450211	145.832715	472.957738	-410.558744	-17.804287	316.479125	-409.347696	-91.565644	275.475114	-360.776974	215.651607	236.164275	-361.272608	121.977758	242.685438	-318.504246	94.458155	225.261279	-434.246932	-221.238874	943.416869	-238.235606	-14.556460	80.155845	-437.461788	-14.553312	80.260694	-37.100249	
